<svg width="1411" height="891" viewBox="0 0 1411 891" fill="none" xmlns="http://www.w3.org/2000/svg">
<rect x="259.599" y="78.3351" width="919.981" height="290.568" rx="7.28698" fill="#73240B"/>
<rect width="1410.03" height="890.833" rx="7.28698" fill="white"/>
<circle cx="71.5036" cy="101.562" r="9.56416" fill="#FF4C00"/>
<circle cx="1126.8" cy="334.564" r="9.56416" fill="#FF4C00"/>
<circle cx="199.937" cy="195.382" r="9.56416" fill="#FF4C00"/>
<circle cx="1255.23" cy="428.384" r="9.56416" fill="#FF4C00"/>
<circle cx="328.37" cy="289.202" r="9.56416" fill="#FA9D76"/>
<circle cx="273.37" cy="583.028" r="9.56416" fill="#FA9D76"/>
<circle cx="1383.67" cy="522.204" r="9.56416" fill="#FA9D76"/>
<circle cx="456.802" cy="191.739" r="9.56416" fill="#FF4C00"/>
<circle cx="401.802" cy="485.564" r="9.56416" fill="#FF4C00"/>
<circle cx="585.236" cy="94.2753" r="9.56416" fill="#FF4C00"/>
<circle cx="923.17" cy="151.66" r="9.56416" fill="#FF4C00"/>
<circle cx="714.58" cy="209.045" r="9.56416" fill="#FA9D76"/>
<circle cx="659.58" cy="502.871" r="9.56416" fill="#FA9D76"/>
<path d="M374.5 333C374.5 333.53 374.711 334.039 375.086 334.414C375.461 334.789 375.97 335 376.5 335C377.03 335 377.539 334.789 377.914 334.414C378.289 334.039 378.5 333.53 378.5 333M381.5 333C381.5 333.53 381.711 334.039 382.086 334.414C382.461 334.789 382.97 335 383.5 335C384.03 335 384.539 334.789 384.914 334.414C385.289 334.039 385.5 333.53 385.5 333M376 319.5H391.5V319.75L391.261 320.033C388.832 322.918 387.5 326.568 387.5 330.34V330.5H374.5V328.62C374.5 326.54 374.434 324.462 374.114 322.408C373.56 318.852 372.337 313.5 370 313.5" stroke="#FA9D76"/>
<path d="M1131.47 356.62C1128.86 357.765 1126.37 359.158 1122.44 358.505C1127.58 352.635 1133.04 354.575 1135.5 356.479C1133.75 355.655 1132.62 356.117 1131.47 356.621C1131.63 356.288 1131.2 356.053 1130.22 355.911M1101.51 380.548C1102 381.187 1102.61 381.424 1103.47 381.424H1104.65C1105.18 381.424 1105.69 381.214 1106.06 380.84C1106.44 380.466 1106.65 379.958 1106.65 379.429V379.419C1106.65 378.89 1106.44 378.382 1106.06 378.008C1105.69 377.634 1105.18 377.424 1104.65 377.424H1103.35C1102.82 377.423 1102.31 377.213 1101.94 376.839C1101.56 376.464 1101.35 375.957 1101.35 375.427C1101.35 374.321 1102.25 373.424 1103.35 373.424H1104.53C1105.39 373.424 1106 373.662 1106.49 374.301M1109.35 377.409H1114.65M1114.65 373.424V381.424M1109.35 373.424V381.424M1125.35 381.424V373.424H1127.97C1129.45 373.424 1130.65 374.627 1130.65 376.111C1130.65 377.595 1129.45 378.798 1127.97 378.798H1125.35M1120.87 358.576C1118.67 358.396 1115.14 358.498 1112.98 360.496C1108.98 364.204 1105.15 364.481 1101.35 363.303C1108.25 354.333 1118.16 354.311 1120.87 358.576ZM1127.93 364.946C1126.53 367.334 1125.47 370.359 1119.73 370.206C1116.57 368.479 1113.62 365.845 1107.17 368.571C1102.77 370.428 1099.98 369.357 1096.5 367.931C1100.5 367.824 1104.61 368.597 1108.5 365.741C1114.53 361.309 1120.6 358.635 1127.93 364.945L1127.93 364.946ZM1120 373.424C1120.35 373.423 1120.69 373.491 1121.01 373.623C1121.33 373.755 1121.63 373.949 1121.87 374.194C1122.12 374.439 1122.31 374.73 1122.45 375.051C1122.58 375.371 1122.65 375.715 1122.65 376.062V378.774C1122.65 379.121 1122.58 379.465 1122.45 379.786C1122.32 380.107 1122.12 380.399 1121.88 380.645C1121.63 380.891 1121.34 381.087 1121.02 381.22C1120.7 381.354 1120.36 381.423 1120.01 381.424H1120C1119.65 381.425 1119.31 381.357 1118.99 381.225C1118.67 381.093 1118.37 380.899 1118.13 380.654C1117.88 380.409 1117.69 380.118 1117.55 379.797C1117.42 379.477 1117.35 379.133 1117.35 378.786V376.074C1117.35 375.727 1117.42 375.383 1117.55 375.062C1117.68 374.741 1117.88 374.449 1118.12 374.203C1118.37 373.957 1118.66 373.761 1118.98 373.628C1119.3 373.494 1119.64 373.425 1119.99 373.424H1120Z" stroke="#FA9D76" stroke-linecap="round" stroke-linejoin="round"/>
<path d="M289 398.136C294.146 398.136 298.318 393.964 298.318 388.818C298.318 383.672 294.146 379.5 289 379.5C283.854 379.5 279.682 383.672 279.682 388.818C279.682 393.964 283.854 398.136 289 398.136Z" stroke="#FA9D76" stroke-linecap="round" stroke-linejoin="round"/>
<path d="M289 420.5C294.146 420.5 298.318 416.328 298.318 411.182C298.318 406.036 294.146 401.864 289 401.864C283.854 401.864 279.682 406.036 279.682 411.182C279.682 416.328 283.854 420.5 289 420.5Z" stroke="#FA9D76" stroke-linecap="round" stroke-linejoin="round"/>
<path d="M234 691.961C239.146 691.961 243.318 687.79 243.318 682.643C243.318 677.497 239.146 673.325 234 673.325C228.854 673.325 224.682 677.497 224.682 682.643C224.682 687.79 228.854 691.961 234 691.961Z" stroke="#FA9D76" stroke-linecap="round" stroke-linejoin="round"/>
<path d="M234 714.325C239.146 714.325 243.318 710.154 243.318 705.007C243.318 699.861 239.146 695.689 234 695.689C228.854 695.689 224.682 699.861 224.682 705.007C224.682 710.154 228.854 714.325 234 714.325Z" stroke="#FA9D76" stroke-linecap="round" stroke-linejoin="round"/>
<path d="M792 528.136C797.146 528.136 801.318 523.964 801.318 518.818C801.318 513.672 797.146 509.5 792 509.5C786.854 509.5 782.682 513.672 782.682 518.818C782.682 523.964 786.854 528.136 792 528.136Z" stroke="#FA9D76" stroke-linecap="round" stroke-linejoin="round"/>
<path d="M792 550.5C797.146 550.5 801.318 546.328 801.318 541.182C801.318 536.036 797.146 531.864 792 531.864C786.854 531.864 782.682 536.036 782.682 541.182C782.682 546.328 786.854 550.5 792 550.5Z" stroke="#FA9D76" stroke-linecap="round" stroke-linejoin="round"/>
<path d="M737 821.961C742.146 821.961 746.318 817.79 746.318 812.643C746.318 807.497 742.146 803.325 737 803.325C731.854 803.325 727.682 807.497 727.682 812.643C727.682 817.79 731.854 821.961 737 821.961Z" stroke="#FA9D76" stroke-linecap="round" stroke-linejoin="round"/>
<path d="M737 844.325C742.146 844.325 746.318 840.154 746.318 835.007C746.318 829.861 742.146 825.689 737 825.689C731.854 825.689 727.682 829.861 727.682 835.007C727.682 840.154 731.854 844.325 737 844.325Z" stroke="#FA9D76" stroke-linecap="round" stroke-linejoin="round"/>
</svg>
