<svg width="1411" height="891" viewBox="0 0 1411 891" fill="none" xmlns="http://www.w3.org/2000/svg">
<rect x="259.599" y="78.3351" width="919.981" height="290.568" rx="7.28698" fill="#73240B"/>
<rect width="1410.03" height="890.833" rx="7.28698" fill="#73240B"/>
<circle cx="71.5036" cy="101.562" r="9.56416" fill="#FF4C00"/>
<circle cx="1126.8" cy="334.564" r="9.56416" fill="#FF4C00"/>
<circle cx="199.937" cy="195.382" r="9.56416" fill="#FF4C00"/>
<circle cx="1383.67" cy="522.204" r="9.56416" fill="#FA9D76"/>
<path d="M374.5 333C374.5 333.53 374.711 334.039 375.086 334.414C375.461 334.789 375.97 335 376.5 335C377.03 335 377.539 334.789 377.914 334.414C378.289 334.039 378.5 333.53 378.5 333M381.5 333C381.5 333.53 381.711 334.039 382.086 334.414C382.461 334.789 382.97 335 383.5 335C384.03 335 384.539 334.789 384.914 334.414C385.289 334.039 385.5 333.53 385.5 333M376 319.5H391.5V319.75L391.261 320.033C388.832 322.918 387.5 326.568 387.5 330.34V330.5H374.5V328.62C374.5 326.54 374.434 324.462 374.114 322.408C373.56 318.852 372.337 313.5 370 313.5" stroke="#FA9D76"/>
<path d="M289 398.136C294.146 398.136 298.318 393.964 298.318 388.818C298.318 383.672 294.146 379.5 289 379.5C283.854 379.5 279.682 383.672 279.682 388.818C279.682 393.964 283.854 398.136 289 398.136Z" stroke="#FA9D76" stroke-linecap="round" stroke-linejoin="round"/>
<path d="M289 420.5C294.146 420.5 298.318 416.328 298.318 411.182C298.318 406.036 294.146 401.864 289 401.864C283.854 401.864 279.682 406.036 279.682 411.182C279.682 416.328 283.854 420.5 289 420.5Z" stroke="#FA9D76" stroke-linecap="round" stroke-linejoin="round"/>
<path d="M792 528.136C797.146 528.136 801.318 523.964 801.318 518.818C801.318 513.672 797.146 509.5 792 509.5C786.854 509.5 782.682 513.672 782.682 518.818C782.682 523.964 786.854 528.136 792 528.136Z" stroke="#FA9D76" stroke-linecap="round" stroke-linejoin="round"/>
<path d="M792 550.5C797.146 550.5 801.318 546.328 801.318 541.182C801.318 536.036 797.146 531.864 792 531.864C786.854 531.864 782.682 536.036 782.682 541.182C782.682 546.328 786.854 550.5 792 550.5Z" stroke="#FA9D76" stroke-linecap="round" stroke-linejoin="round"/>
</svg>
