<svg width="1411" height="891" viewBox="0 0 1411 891" fill="none" xmlns="http://www.w3.org/2000/svg">
<g clip-path="url(#clip0_50_1164)">
<rect x="259.599" y="78.3351" width="919.981" height="290.568" rx="7.28698" fill="#73240B"/>
<g clip-path="url(#clip1_50_1164)">
<rect width="1410.03" height="890.833" rx="7.28698" fill="#73240B"/>
</g>
<circle cx="1097.5" cy="413.5" r="164.5" fill="#FF4C00"/>
<circle cx="1241.06" cy="556.999" r="47.8208" fill="#FF4C00"/>
<circle cx="81.5232" cy="508.821" r="47.8208" fill="#FF4C00"/>
<circle cx="839.821" cy="837.821" r="47.8208" fill="#FF4C00"/>
<circle cx="71.5036" cy="101.562" r="9.56416" fill="#FF4C00"/>
<circle cx="1126.8" cy="334.564" r="9.56416" fill="#FF4C00"/>
<circle cx="199.937" cy="195.382" r="9.56416" fill="#FF4C00"/>
<circle cx="1255.23" cy="428.384" r="9.56416" fill="#FF4C00"/>
<circle cx="328.37" cy="289.202" r="9.56416" fill="#FA9D76"/>
<circle cx="1383.67" cy="522.204" r="9.56416" fill="#FA9D76"/>
<circle cx="456.803" cy="191.739" r="9.56416" fill="#FF4C00"/>
<circle cx="585.236" cy="94.2753" r="9.56416" fill="#FF4C00"/>
<circle cx="923.169" cy="151.66" r="9.56416" fill="#FF4C00"/>
<circle cx="714.58" cy="209.045" r="9.56416" fill="#FA9D76"/>
<path d="M374.5 333C374.5 333.53 374.711 334.039 375.086 334.414C375.461 334.789 375.97 335 376.5 335C377.03 335 377.539 334.789 377.914 334.414C378.289 334.039 378.5 333.53 378.5 333M381.5 333C381.5 333.53 381.711 334.039 382.086 334.414C382.461 334.789 382.97 335 383.5 335C384.03 335 384.539 334.789 384.914 334.414C385.289 334.039 385.5 333.53 385.5 333M376 319.5H391.5V319.75L391.261 320.033C388.832 322.918 387.5 326.568 387.5 330.34V330.5H374.5V328.62C374.5 326.54 374.434 324.462 374.114 322.408C373.56 318.852 372.337 313.5 370 313.5" stroke="#FA9D76"/>
<path d="M1131.47 356.62C1128.86 357.765 1126.37 359.158 1122.44 358.505C1127.58 352.635 1133.04 354.575 1135.5 356.479C1133.75 355.655 1132.62 356.117 1131.47 356.621C1131.63 356.288 1131.2 356.053 1130.22 355.911M1101.51 380.548C1102 381.187 1102.61 381.424 1103.47 381.424H1104.65C1105.18 381.424 1105.69 381.214 1106.06 380.84C1106.44 380.466 1106.65 379.958 1106.65 379.429V379.419C1106.65 378.89 1106.44 378.382 1106.06 378.008C1105.69 377.634 1105.18 377.424 1104.65 377.424H1103.35C1102.82 377.423 1102.31 377.213 1101.94 376.839C1101.56 376.464 1101.35 375.957 1101.35 375.427C1101.35 374.321 1102.25 373.424 1103.35 373.424H1104.53C1105.39 373.424 1106 373.662 1106.49 374.301M1109.35 377.409H1114.65M1114.65 373.424V381.424M1109.35 373.424V381.424M1125.35 381.424V373.424H1127.97C1129.45 373.424 1130.65 374.627 1130.65 376.111C1130.65 377.595 1129.45 378.798 1127.97 378.798H1125.35M1120.87 358.576C1118.67 358.396 1115.14 358.498 1112.98 360.496C1108.98 364.204 1105.15 364.481 1101.35 363.303C1108.25 354.333 1118.16 354.311 1120.87 358.576ZM1127.93 364.946C1126.53 367.334 1125.47 370.359 1119.73 370.206C1116.57 368.479 1113.62 365.845 1107.17 368.571C1102.77 370.428 1099.98 369.357 1096.5 367.931C1100.5 367.824 1104.61 368.597 1108.5 365.741C1114.53 361.309 1120.6 358.635 1127.93 364.945L1127.93 364.946ZM1120 373.424C1120.35 373.423 1120.69 373.491 1121.01 373.623C1121.33 373.755 1121.63 373.949 1121.87 374.194C1122.12 374.439 1122.31 374.73 1122.45 375.051C1122.58 375.371 1122.65 375.715 1122.65 376.062V378.774C1122.65 379.121 1122.58 379.465 1122.45 379.786C1122.32 380.107 1122.12 380.399 1121.88 380.645C1121.63 380.891 1121.34 381.087 1121.02 381.22C1120.7 381.354 1120.36 381.423 1120.01 381.424H1120C1119.65 381.425 1119.31 381.357 1118.99 381.225C1118.67 381.093 1118.37 380.899 1118.13 380.654C1117.88 380.409 1117.69 380.118 1117.55 379.797C1117.42 379.477 1117.35 379.133 1117.35 378.786V376.074C1117.35 375.727 1117.42 375.383 1117.55 375.062C1117.68 374.741 1117.88 374.449 1118.12 374.203C1118.37 373.957 1118.66 373.761 1118.98 373.628C1119.3 373.494 1119.64 373.425 1119.99 373.424H1120Z" stroke="#FA9D76" stroke-linecap="round" stroke-linejoin="round"/>
<path d="M289 398.136C294.146 398.136 298.318 393.964 298.318 388.818C298.318 383.672 294.146 379.5 289 379.5C283.854 379.5 279.682 383.672 279.682 388.818C279.682 393.964 283.854 398.136 289 398.136Z" stroke="#FA9D76" stroke-linecap="round" stroke-linejoin="round"/>
<path d="M289 420.5C294.146 420.5 298.318 416.328 298.318 411.182C298.318 406.036 294.146 401.864 289 401.864C283.854 401.864 279.682 406.036 279.682 411.182C279.682 416.328 283.854 420.5 289 420.5Z" stroke="#FA9D76" stroke-linecap="round" stroke-linejoin="round"/>
<path d="M792 528.136C797.146 528.136 801.318 523.964 801.318 518.818C801.318 513.672 797.146 509.5 792 509.5C786.854 509.5 782.682 513.672 782.682 518.818C782.682 523.964 786.854 528.136 792 528.136Z" stroke="#FA9D76" stroke-linecap="round" stroke-linejoin="round"/>
<path d="M792 550.5C797.146 550.5 801.318 546.328 801.318 541.182C801.318 536.036 797.146 531.864 792 531.864C786.854 531.864 782.682 536.036 782.682 541.182C782.682 546.328 786.854 550.5 792 550.5Z" stroke="#FA9D76" stroke-linecap="round" stroke-linejoin="round"/>
<path d="M1179.7 572.142L1179.45 590.083L1188.42 590.203M1141.56 577.197C1144.12 579.172 1146.7 579.853 1151.88 579.922L1154.46 579.957C1155.57 579.972 1156.67 579.769 1157.69 579.361C1158.72 578.952 1159.65 578.345 1160.44 577.574C1161.24 576.804 1161.87 575.885 1162.3 574.87C1162.74 573.856 1162.97 572.765 1162.99 571.661C1163 570.556 1162.8 569.46 1162.39 568.434C1161.98 567.408 1161.37 566.472 1160.6 565.681C1159.83 564.889 1158.92 564.258 1157.9 563.821C1156.89 563.385 1155.8 563.153 1154.69 563.138L1148.87 563.059C1146.64 563.029 1144.51 562.114 1142.96 560.516C1141.4 558.918 1140.54 556.767 1140.57 554.536C1140.6 552.306 1141.52 550.179 1143.12 548.623C1144.71 547.067 1146.87 546.21 1149.1 546.24L1151.68 546.274C1157.51 546.353 1160.08 547.036 1162 549.002M1128.29 533.93L1128.37 528.07C1128.54 514.868 1139.39 504.308 1152.59 504.486C1165.8 504.663 1176.36 515.512 1176.18 528.714L1176.1 534.574M1172.85 592.162C1172.47 592.206 1172.08 592.226 1171.7 592.221L1131.09 591.674C1128.89 591.645 1126.77 590.809 1125.15 589.325C1123.53 587.84 1122.5 585.811 1122.28 583.622L1117.15 533.78L1187.18 534.723L1183.18 565.538M1199.76 581.384C1199.7 585.547 1197.99 589.518 1195.01 592.422C1192.03 595.327 1188.01 596.927 1183.85 596.871C1179.69 596.815 1175.71 595.107 1172.81 592.123C1169.91 589.14 1168.31 585.124 1168.36 580.961C1168.42 576.798 1170.13 572.827 1173.11 569.922C1176.09 567.018 1180.11 565.418 1184.27 565.474C1188.44 565.53 1192.41 567.238 1195.31 570.222C1198.21 573.205 1199.81 577.22 1199.76 581.384Z" stroke="#FA9D76" stroke-linecap="round" stroke-linejoin="round"/>
<path d="M1260.83 206.55L1241.33 214.335C1240.1 214.849 1238.93 214.734 1237.83 213.99C1236.72 213.246 1236.17 212.205 1236.17 210.867V209.171C1236.17 208.554 1236.31 207.963 1236.59 207.398C1236.88 206.833 1237.27 206.37 1237.79 206.01L1260.83 189.9V176.333C1260.83 174.637 1261.44 173.186 1262.65 171.98C1263.86 170.773 1265.31 170.169 1267 170.167C1268.69 170.165 1270.15 170.769 1271.36 171.98C1272.57 173.19 1273.17 174.642 1273.17 176.333V189.9L1296.21 206.01C1296.73 206.37 1297.13 206.833 1297.41 207.398C1297.69 207.963 1297.84 208.554 1297.83 209.171V210.867C1297.83 212.203 1297.28 213.244 1296.18 213.99C1295.07 214.736 1293.9 214.851 1292.67 214.335L1273.17 206.55V217.65L1281.11 223.2C1281.52 223.508 1281.84 223.881 1282.07 224.319C1282.3 224.757 1282.42 225.232 1282.42 225.744V227.594C1282.42 228.621 1281.99 229.457 1281.14 230.1C1280.29 230.744 1279.36 230.91 1278.33 230.6L1267 227.208L1255.67 230.6C1254.64 230.908 1253.7 230.742 1252.85 230.1C1252 229.459 1251.58 228.624 1251.58 227.594V225.744C1251.58 225.23 1251.7 224.755 1251.93 224.319C1252.16 223.883 1252.48 223.51 1252.89 223.2L1260.83 217.65V206.55Z" fill="#FA9D76"/>
<circle cx="380.775" cy="558.577" r="13.9615" fill="#FF4C00"/>
<circle cx="568.258" cy="695.533" r="13.9615" fill="#FA9D76"/>
<path d="M339.688 618.093C339.588 617.288 339.198 616.547 338.591 616.008C337.984 615.47 337.202 615.171 336.39 615.168H320.122C319.313 615.171 318.532 615.468 317.925 616.003C317.319 616.539 316.927 617.277 316.824 618.08L316.425 621.364C316.425 622.009 316.562 622.646 316.828 623.233C317.094 623.82 317.483 624.343 317.968 624.768V635.618C317.968 636.5 318.318 637.345 318.941 637.969C319.565 638.592 320.41 638.942 321.292 638.942H335.214C336.095 638.942 336.941 638.592 337.564 637.969C338.187 637.345 338.538 636.5 338.538 635.618V624.768C339.024 624.344 339.414 623.821 339.681 623.234C339.948 622.647 340.086 622.009 340.087 621.364L339.688 618.093ZM330.925 637.613H325.607V632.188C325.607 631.659 325.817 631.151 326.191 630.777C326.565 630.403 327.072 630.193 327.601 630.193H328.931C329.46 630.193 329.967 630.403 330.341 630.777C330.715 631.151 330.925 631.659 330.925 632.188V637.613ZM337.215 635.618C337.215 636.147 337.005 636.654 336.631 637.028C336.256 637.402 335.749 637.613 335.22 637.613H332.255V632.188C332.255 631.306 331.905 630.46 331.281 629.837C330.658 629.214 329.812 628.863 328.931 628.863H327.601C326.72 628.863 325.874 629.214 325.251 629.837C324.627 630.46 324.277 631.306 324.277 632.188V637.613H321.292C320.763 637.613 320.256 637.402 319.882 637.028C319.508 636.654 319.297 636.147 319.297 635.618V625.552C319.82 625.767 320.381 625.876 320.946 625.872C321.599 625.874 322.244 625.734 322.837 625.461C323.43 625.187 323.955 624.788 324.377 624.289C324.406 624.26 324.442 624.236 324.48 624.22C324.519 624.204 324.561 624.195 324.603 624.195C324.645 624.195 324.686 624.204 324.725 624.22C324.764 624.236 324.799 624.26 324.829 624.289C325.25 624.788 325.776 625.187 326.369 625.461C326.961 625.734 327.607 625.874 328.259 625.872C328.915 625.874 329.563 625.733 330.159 625.46C330.755 625.187 331.284 624.787 331.71 624.289C331.737 624.26 331.77 624.237 331.807 624.221C331.843 624.205 331.883 624.196 331.923 624.196C331.965 624.196 332.006 624.204 332.045 624.22C332.084 624.236 332.119 624.26 332.149 624.289C332.57 624.788 333.096 625.187 333.688 625.461C334.281 625.734 334.927 625.874 335.579 625.872C336.14 625.874 336.696 625.766 337.215 625.552V635.618ZM335.579 624.542C335.12 624.544 334.666 624.446 334.248 624.255C333.83 624.065 333.459 623.786 333.159 623.438C333.009 623.259 332.822 623.115 332.611 623.017C332.4 622.918 332.169 622.867 331.936 622.867H331.923C331.69 622.865 331.461 622.914 331.249 623.011C331.038 623.107 330.85 623.248 330.699 623.425C330.391 623.761 330.016 624.03 329.598 624.214C329.18 624.397 328.729 624.492 328.273 624.492C327.816 624.492 327.365 624.397 326.947 624.214C326.529 624.03 326.154 623.761 325.846 623.425C325.691 623.25 325.501 623.109 325.288 623.013C325.075 622.917 324.843 622.867 324.609 622.867C324.375 622.867 324.144 622.917 323.931 623.013C323.718 623.109 323.528 623.25 323.373 623.425C322.953 623.915 322.395 624.266 321.772 624.433C321.149 624.6 320.49 624.575 319.882 624.36C319.274 624.146 318.745 623.753 318.364 623.232C317.983 622.712 317.768 622.088 317.748 621.444L318.147 618.253C318.211 617.771 318.447 617.328 318.811 617.006C319.174 616.683 319.642 616.503 320.128 616.497H336.39C336.878 616.497 337.349 616.676 337.714 616.999C338.079 617.322 338.313 617.768 338.372 618.253L338.757 621.391C338.75 622.23 338.411 623.032 337.815 623.623C337.218 624.213 336.412 624.544 335.573 624.542H335.579Z" fill="#FA9D76"/>
<path d="M1208.39 78.9941C1208.29 78.189 1207.9 77.4479 1207.29 76.9095C1206.69 76.3712 1205.9 76.0723 1205.09 76.0688H1188.83C1188.02 76.0719 1187.24 76.3689 1186.63 76.9046C1186.02 77.4402 1185.63 78.1781 1185.53 78.9808L1185.13 82.2651C1185.13 82.9096 1185.27 83.5468 1185.53 84.1339C1185.8 84.7209 1186.19 85.2444 1186.67 85.669V96.5191C1186.67 97.4007 1187.02 98.2463 1187.64 98.8697C1188.27 99.4931 1189.11 99.8433 1190 99.8433H1203.92C1204.8 99.8433 1205.64 99.4931 1206.27 98.8697C1206.89 98.2463 1207.24 97.4007 1207.24 96.5191V85.669C1207.73 85.245 1208.12 84.7218 1208.38 84.1347C1208.65 83.5476 1208.79 82.9101 1208.79 82.2651L1208.39 78.9941ZM1199.63 98.5136H1194.31V93.0886C1194.31 92.5596 1194.52 92.0523 1194.89 91.6782C1195.27 91.3042 1195.78 91.0941 1196.3 91.0941H1197.63C1198.16 91.0941 1198.67 91.3042 1199.04 91.6782C1199.42 92.0523 1199.63 92.5596 1199.63 93.0886V98.5136ZM1205.92 96.5191C1205.92 97.0481 1205.71 97.5554 1205.33 97.9294C1204.96 98.3035 1204.45 98.5136 1203.92 98.5136H1200.96V93.0886C1200.96 92.2069 1200.61 91.3614 1199.98 90.738C1199.36 90.1146 1198.52 89.7644 1197.63 89.7644H1196.3C1195.42 89.7644 1194.58 90.1146 1193.95 90.738C1193.33 91.3614 1192.98 92.2069 1192.98 93.0886V98.5136H1190C1189.47 98.5136 1188.96 98.3035 1188.58 97.9294C1188.21 97.5554 1188 97.0481 1188 96.5191V86.4535C1188.52 86.6684 1189.08 86.7769 1189.65 86.7726C1190.3 86.7755 1190.95 86.6353 1191.54 86.3619C1192.13 86.0886 1192.66 85.6886 1193.08 85.1903C1193.11 85.1606 1193.14 85.137 1193.18 85.1209C1193.22 85.1048 1193.26 85.0965 1193.31 85.0965C1193.35 85.0965 1193.39 85.1048 1193.43 85.1209C1193.47 85.137 1193.5 85.1606 1193.53 85.1903C1193.95 85.6886 1194.48 86.0886 1195.07 86.3619C1195.66 86.6353 1196.31 86.7755 1196.96 86.7726C1197.62 86.7748 1198.27 86.6344 1198.86 86.3612C1199.46 86.088 1199.99 85.6884 1200.41 85.1903C1200.44 85.1611 1200.47 85.1378 1200.51 85.1218C1200.55 85.1058 1200.59 85.0974 1200.63 85.0972C1200.67 85.0971 1200.71 85.1053 1200.75 85.1213C1200.79 85.1373 1200.82 85.1607 1200.85 85.1903C1201.27 85.6886 1201.8 86.0886 1202.39 86.3619C1202.98 86.6353 1203.63 86.7755 1204.28 86.7726C1204.84 86.7751 1205.4 86.6666 1205.92 86.4535V96.5191ZM1204.28 85.443C1203.82 85.4448 1203.37 85.347 1202.95 85.1565C1202.53 84.966 1202.16 84.6872 1201.86 84.3393C1201.71 84.1604 1201.53 84.0165 1201.31 83.9177C1201.1 83.8189 1200.87 83.7677 1200.64 83.7676H1200.63C1200.39 83.766 1200.16 83.8152 1199.95 83.9116C1199.74 84.0081 1199.55 84.1495 1199.4 84.326C1199.09 84.6624 1198.72 84.931 1198.3 85.1147C1197.88 85.2985 1197.43 85.3934 1196.98 85.3934C1196.52 85.3934 1196.07 85.2985 1195.65 85.1147C1195.23 84.931 1194.86 84.6624 1194.55 84.326C1194.39 84.1506 1194.2 84.0101 1193.99 83.9138C1193.78 83.8176 1193.55 83.7678 1193.31 83.7678C1193.08 83.7678 1192.85 83.8176 1192.63 83.9138C1192.42 84.0101 1192.23 84.1506 1192.08 84.326C1191.66 84.8157 1191.1 85.1671 1190.48 85.334C1189.85 85.501 1189.19 85.4756 1188.59 85.2614C1187.98 85.0471 1187.45 84.6539 1187.07 84.1334C1186.69 83.6129 1186.47 82.9894 1186.45 82.3448L1186.85 79.1536C1186.91 78.6717 1187.15 78.229 1187.51 77.9066C1187.88 77.5842 1188.35 77.4038 1188.83 77.3985H1205.09C1205.58 77.3982 1206.05 77.5766 1206.42 77.9C1206.78 78.2235 1207.02 78.6694 1207.07 79.1536L1207.46 82.2916C1207.45 83.131 1207.11 83.9335 1206.52 84.5239C1205.92 85.1144 1205.12 85.4447 1204.28 85.443H1204.28Z" fill="white"/>
<path d="M660.424 724.972L663.158 751.92C663.439 754.688 664.737 757.253 666.801 759.118C668.865 760.984 671.548 762.016 674.33 762.016H694.879C697.661 762.016 700.344 760.984 702.408 759.118C704.472 757.253 705.77 754.688 706.051 751.92L708.784 724.97L660.424 724.972Z" stroke="#FA9D76" stroke-width="1.32967" stroke-linecap="round" stroke-linejoin="round"/>
<path d="M673.479 724.972V721.228C673.479 718.277 674.651 715.448 676.737 713.362C678.823 711.276 681.653 710.104 684.603 710.104C687.553 710.104 690.383 711.276 692.469 713.362C694.555 715.448 695.727 718.277 695.727 721.228V724.971M679.815 749.909C680.879 750.802 682.026 751.212 684.604 751.212H685.911C686.933 751.21 687.913 750.802 688.635 750.079C689.356 749.355 689.762 748.375 689.761 747.353C689.762 746.331 689.356 745.35 688.635 744.627C687.913 743.903 686.933 743.496 685.911 743.494H683.297C682.275 743.492 681.296 743.085 680.574 742.361C679.852 741.638 679.447 740.657 679.448 739.635C679.448 738.614 679.853 737.634 680.574 736.91C681.296 736.187 682.276 735.78 683.297 735.778H684.604C687.184 735.778 688.331 736.186 689.394 737.08" stroke="#FA9D76" stroke-width="1.32967" stroke-linecap="round" stroke-linejoin="round"/>
<path d="M1330.12 488.264C1326.66 489.786 1323.34 491.639 1318.12 490.77C1324.94 482.965 1332.21 485.545 1335.48 488.076C1333.15 486.981 1331.64 487.595 1330.12 488.265C1330.33 487.823 1329.76 487.51 1328.46 487.321M1290.28 520.08C1290.93 520.93 1291.75 521.245 1292.89 521.245H1294.46C1295.17 521.245 1295.84 520.966 1296.34 520.468C1296.84 519.971 1297.12 519.296 1297.12 518.592V518.579C1297.12 517.875 1296.84 517.201 1296.34 516.703C1295.84 516.206 1295.17 515.926 1294.46 515.926H1292.73C1292.02 515.926 1291.35 515.646 1290.85 515.148C1290.35 514.65 1290.07 513.975 1290.07 513.271C1290.07 511.8 1291.26 510.608 1292.73 510.608H1294.3C1295.43 510.608 1296.25 510.924 1296.91 511.774M1300.71 515.906H1307.75M1307.75 510.608V521.245M1300.71 510.608V521.245M1321.98 521.245V510.608H1325.46C1327.43 510.608 1329.03 512.207 1329.03 514.181C1329.03 516.154 1327.43 517.753 1325.46 517.753H1321.98M1316.02 490.865C1313.1 490.625 1308.41 490.761 1305.54 493.418C1300.21 498.348 1295.12 498.717 1290.07 497.15C1299.24 485.223 1312.42 485.194 1316.02 490.865ZM1325.41 499.335C1323.55 502.51 1322.14 506.532 1314.5 506.329C1310.31 504.033 1306.39 500.53 1297.8 504.155C1291.95 506.624 1288.24 505.2 1283.62 503.304C1288.94 503.162 1294.4 504.189 1299.57 500.392C1307.59 494.499 1315.66 490.943 1325.41 499.333L1325.41 499.335ZM1314.87 510.608C1315.33 510.607 1315.79 510.697 1316.21 510.872C1316.64 511.048 1317.03 511.306 1317.36 511.632C1317.68 511.958 1317.94 512.345 1318.12 512.771C1318.3 513.197 1318.39 513.654 1318.39 514.115V517.721C1318.39 518.183 1318.3 518.641 1318.13 519.067C1317.95 519.494 1317.69 519.883 1317.37 520.21C1317.04 520.537 1316.65 520.797 1316.23 520.974C1315.8 521.152 1315.35 521.244 1314.88 521.245H1314.87C1314.41 521.246 1313.95 521.156 1313.52 520.981C1313.1 520.805 1312.71 520.547 1312.38 520.221C1312.05 519.895 1311.79 519.508 1311.62 519.082C1311.44 518.656 1311.35 518.199 1311.34 517.737V514.131C1311.34 513.67 1311.43 513.212 1311.61 512.785C1311.78 512.358 1312.04 511.97 1312.37 511.643C1312.69 511.316 1313.08 511.056 1313.51 510.878C1313.93 510.701 1314.39 510.609 1314.85 510.608H1314.87Z" stroke="#FA9D76" stroke-width="1.32967" stroke-linecap="round" stroke-linejoin="round"/>
<path d="M209.912 543.467C216.755 543.467 222.302 537.919 222.302 531.077C222.302 524.234 216.755 518.687 209.912 518.687C203.069 518.687 197.522 524.234 197.522 531.077C197.522 537.919 203.069 543.467 209.912 543.467Z" stroke="#FA9D76" stroke-width="1.32967" stroke-linecap="round" stroke-linejoin="round"/>
<path d="M209.912 573.203C216.755 573.203 222.302 567.656 222.302 560.813C222.302 553.971 216.755 548.424 209.912 548.424C203.069 548.424 197.522 553.971 197.522 560.813C197.522 567.656 203.069 573.203 209.912 573.203Z" stroke="#FA9D76" stroke-width="1.32967" stroke-linecap="round" stroke-linejoin="round"/>
<path d="M878.736 716.324C885.579 716.324 891.126 710.777 891.126 703.934C891.126 697.091 885.579 691.544 878.736 691.544C871.893 691.544 866.346 697.091 866.346 703.934C866.346 710.777 871.893 716.324 878.736 716.324Z" stroke="#FA9D76" stroke-width="1.32967" stroke-linecap="round" stroke-linejoin="round"/>
<path d="M878.736 746.06C885.579 746.06 891.126 740.513 891.126 733.671C891.126 726.828 885.579 721.281 878.736 721.281C871.893 721.281 866.346 726.828 866.346 733.671C866.346 740.513 871.893 746.06 878.736 746.06Z" stroke="#FA9D76" stroke-width="1.32967" stroke-linecap="round" stroke-linejoin="round"/>
<rect x="395" y="-192" width="184" height="268" rx="36" fill="#FA9D76"/>
<path d="M313 772C313 752.118 329.118 736 349 736H461C480.882 736 497 752.118 497 772V968C497 987.882 480.882 1004 461 1004H349C329.118 1004 313 987.882 313 968V772Z" fill="#FA9D76"/>
</g>
<defs>
<clipPath id="clip0_50_1164">
<rect width="1410.03" height="890.833" fill="white"/>
</clipPath>
<clipPath id="clip1_50_1164">
<rect width="1410.03" height="890.833" fill="white"/>
</clipPath>
</defs>
</svg>
