<svg width="1411" height="891" viewBox="0 0 1411 891" fill="none" xmlns="http://www.w3.org/2000/svg">
<rect x="259.599" y="78.3351" width="919.981" height="290.568" rx="7.28698" fill="#73240B"/>
<rect width="1410.03" height="890.833" rx="7.28698" fill="#FA9D76"/>
<circle cx="1241.06" cy="556.999" r="47.8208" fill="#FF4C00"/>
<circle cx="81.523" cy="508.821" r="47.8208" fill="#FF4C00"/>
<circle cx="839.821" cy="837.821" r="47.8208" fill="#FF4C00"/>
<circle cx="176.564" cy="435.564" r="9.56416" fill="#FF4C00"/>
<circle cx="1126.8" cy="334.564" r="9.56416" fill="#FF4C00"/>
<circle cx="304.997" cy="529.384" r="9.56416" fill="#FF4C00"/>
<circle cx="1360.29" cy="762.386" r="9.56416" fill="#FF4C00"/>
<circle cx="328.37" cy="289.202" r="9.56416" fill="#FA9D76"/>
<circle cx="1383.67" cy="522.204" r="9.56416" fill="#FA9D76"/>
<circle cx="561.863" cy="525.741" r="9.56416" fill="#FF4C00"/>
<circle cx="585.236" cy="94.2753" r="9.56416" fill="#FF4C00"/>
<circle cx="923.17" cy="151.66" r="9.56416" fill="#FF4C00"/>
<circle cx="714.58" cy="209.045" r="9.56416" fill="#FA9D76"/>
<circle cx="183.5" cy="713.5" r="149.5" fill="#FF4C00"/>
<circle cx="1283.5" cy="753.5" r="90.5" fill="#FF4C00"/>
<path d="M374.5 333C374.5 333.53 374.711 334.039 375.086 334.414C375.461 334.789 375.97 335 376.5 335C377.03 335 377.539 334.789 377.914 334.414C378.289 334.039 378.5 333.53 378.5 333M381.5 333C381.5 333.53 381.711 334.039 382.086 334.414C382.461 334.789 382.97 335 383.5 335C384.03 335 384.539 334.789 384.914 334.414C385.289 334.039 385.5 333.53 385.5 333M376 319.5H391.5V319.75L391.261 320.033C388.832 322.918 387.5 326.568 387.5 330.34V330.5H374.5V328.62C374.5 326.54 374.434 324.462 374.114 322.408C373.56 318.852 372.337 313.5 370 313.5" stroke="#FA9D76"/>
<path d="M1131.47 356.62C1128.86 357.765 1126.37 359.158 1122.44 358.505C1127.58 352.635 1133.04 354.575 1135.5 356.479C1133.75 355.655 1132.62 356.117 1131.47 356.621C1131.63 356.288 1131.2 356.053 1130.22 355.911M1101.51 380.548C1102 381.187 1102.61 381.424 1103.47 381.424H1104.65C1105.18 381.424 1105.69 381.214 1106.06 380.84C1106.44 380.466 1106.65 379.958 1106.65 379.429V379.419C1106.65 378.89 1106.44 378.382 1106.06 378.008C1105.69 377.634 1105.18 377.424 1104.65 377.424H1103.35C1102.82 377.423 1102.31 377.213 1101.94 376.839C1101.56 376.464 1101.35 375.957 1101.35 375.427C1101.35 374.321 1102.25 373.424 1103.35 373.424H1104.53C1105.39 373.424 1106 373.662 1106.49 374.301M1109.35 377.409H1114.65M1114.65 373.424V381.424M1109.35 373.424V381.424M1125.35 381.424V373.424H1127.97C1129.45 373.424 1130.65 374.627 1130.65 376.111C1130.65 377.595 1129.45 378.798 1127.97 378.798H1125.35M1120.87 358.576C1118.67 358.396 1115.14 358.498 1112.98 360.496C1108.98 364.204 1105.15 364.481 1101.35 363.303C1108.25 354.333 1118.16 354.311 1120.87 358.576ZM1127.93 364.946C1126.53 367.334 1125.47 370.359 1119.73 370.206C1116.57 368.479 1113.62 365.845 1107.17 368.571C1102.77 370.428 1099.98 369.357 1096.5 367.931C1100.5 367.824 1104.61 368.597 1108.5 365.741C1114.53 361.309 1120.6 358.635 1127.93 364.945L1127.93 364.946ZM1120 373.424C1120.35 373.423 1120.69 373.491 1121.01 373.623C1121.33 373.755 1121.63 373.949 1121.87 374.194C1122.12 374.439 1122.31 374.73 1122.45 375.051C1122.58 375.371 1122.65 375.715 1122.65 376.062V378.774C1122.65 379.121 1122.58 379.465 1122.45 379.786C1122.32 380.107 1122.12 380.399 1121.88 380.645C1121.63 380.891 1121.34 381.087 1121.02 381.22C1120.7 381.354 1120.36 381.423 1120.01 381.424H1120C1119.65 381.425 1119.31 381.357 1118.99 381.225C1118.67 381.093 1118.37 380.899 1118.13 380.654C1117.88 380.409 1117.69 380.118 1117.55 379.797C1117.42 379.477 1117.35 379.133 1117.35 378.786V376.074C1117.35 375.727 1117.42 375.383 1117.55 375.062C1117.68 374.741 1117.88 374.449 1118.12 374.203C1118.37 373.957 1118.66 373.761 1118.98 373.628C1119.3 373.494 1119.64 373.425 1119.99 373.424H1120Z" stroke="#FA9D76" stroke-linecap="round" stroke-linejoin="round"/>
<path d="M289 398.136C294.146 398.136 298.318 393.964 298.318 388.818C298.318 383.672 294.146 379.5 289 379.5C283.853 379.5 279.682 383.672 279.682 388.818C279.682 393.964 283.853 398.136 289 398.136Z" stroke="#FA9D76" stroke-linecap="round" stroke-linejoin="round"/>
<path d="M289 420.5C294.146 420.5 298.318 416.328 298.318 411.182C298.318 406.036 294.146 401.864 289 401.864C283.853 401.864 279.682 406.036 279.682 411.182C279.682 416.328 283.853 420.5 289 420.5Z" stroke="#FA9D76" stroke-linecap="round" stroke-linejoin="round"/>
<path d="M792 528.136C797.146 528.136 801.318 523.964 801.318 518.818C801.318 513.672 797.146 509.5 792 509.5C786.853 509.5 782.682 513.672 782.682 518.818C782.682 523.964 786.853 528.136 792 528.136Z" stroke="#FA9D76" stroke-linecap="round" stroke-linejoin="round"/>
<path d="M792 550.5C797.146 550.5 801.318 546.328 801.318 541.182C801.318 536.036 797.146 531.864 792 531.864C786.853 531.864 782.682 536.036 782.682 541.182C782.682 546.328 786.853 550.5 792 550.5Z" stroke="#FA9D76" stroke-linecap="round" stroke-linejoin="round"/>
<path d="M1179.7 572.142L1179.45 590.083L1188.43 590.203M1141.56 577.197C1144.12 579.172 1146.7 579.853 1151.88 579.922L1154.46 579.957C1155.57 579.972 1156.67 579.769 1157.69 579.361C1158.72 578.952 1159.65 578.345 1160.44 577.574C1161.24 576.804 1161.87 575.885 1162.3 574.87C1162.74 573.856 1162.97 572.765 1162.99 571.661C1163 570.556 1162.8 569.46 1162.39 568.434C1161.98 567.408 1161.37 566.472 1160.6 565.681C1159.83 564.889 1158.92 564.258 1157.9 563.821C1156.89 563.385 1155.8 563.153 1154.69 563.138L1148.87 563.059C1146.64 563.029 1144.51 562.114 1142.96 560.516C1141.4 558.918 1140.54 556.767 1140.57 554.536C1140.6 552.306 1141.52 550.179 1143.12 548.623C1144.71 547.067 1146.87 546.21 1149.1 546.24L1151.68 546.274C1157.51 546.353 1160.08 547.036 1162 549.002M1128.29 533.93L1128.37 528.07C1128.54 514.868 1139.39 504.308 1152.59 504.486C1165.8 504.663 1176.36 515.512 1176.18 528.714L1176.1 534.574M1172.85 592.162C1172.47 592.206 1172.08 592.226 1171.7 592.221L1131.09 591.674C1128.89 591.645 1126.77 590.809 1125.15 589.325C1123.53 587.84 1122.5 585.811 1122.28 583.622L1117.15 533.78L1187.19 534.723L1183.18 565.538M1199.76 581.384C1199.7 585.547 1198 589.518 1195.01 592.422C1192.03 595.327 1188.01 596.927 1183.85 596.871C1179.69 596.815 1175.72 595.107 1172.81 592.123C1169.91 589.14 1168.31 585.124 1168.36 580.961C1168.42 576.798 1170.13 572.827 1173.11 569.922C1176.09 567.018 1180.11 565.418 1184.27 565.474C1188.44 565.53 1192.41 567.238 1195.31 570.222C1198.21 573.205 1199.82 577.22 1199.76 581.384Z" stroke="#FA9D76" stroke-linecap="round" stroke-linejoin="round"/>
<path d="M624.126 288.779H551.884C549.547 288.779 547.635 290.692 547.635 293.029C547.635 295.366 549.547 297.279 551.884 297.279H624.126C626.464 297.279 628.376 295.366 628.376 293.029C628.376 290.692 626.464 288.779 624.126 288.779ZM630.798 249.004C629.863 245.604 626.379 243.607 622.979 244.499L600.414 250.533L572.962 224.951C572.394 224.413 571.695 224.032 570.935 223.845C570.175 223.659 569.38 223.674 568.627 223.889C565.738 224.696 564.378 228.011 565.865 230.603L580.484 255.93L559.363 261.582L552.692 256.313C551.629 255.505 550.269 255.208 548.952 255.548L547.55 255.93C546.19 256.27 545.552 257.843 546.275 259.033L554.264 272.844C555.241 274.501 557.196 275.308 559.023 274.841L626.251 256.823C629.651 255.888 631.691 252.403 630.798 249.004Z" fill="#FA9D76"/>
<g clip-path="url(#clip0_50_919)">
<path d="M524 670.876C525.091 648.736 535.243 629.188 556.724 616.544C586.633 598.938 616.811 581.789 646.853 564.409C648.096 563.69 648.458 563.897 648.964 565.201C656.202 583.866 649.244 603.592 636.235 615.171C635.103 616.178 633.825 616.981 632.513 617.739C616.877 626.759 601.245 635.785 585.617 644.818C583.383 646.109 582.265 648.248 582.613 650.431C582.994 652.818 584.923 654.796 587.3 655.228C588.834 655.507 590.137 654.881 591.406 654.148C606.738 645.3 622.069 636.451 637.399 627.602C638.857 626.76 640.339 625.957 641.761 625.058C642.582 624.539 642.934 624.721 643.256 625.59C645.499 631.651 646.698 637.888 646.252 644.361C645.273 658.549 639.086 669.998 627.459 678.147C621.871 682.064 615.69 685.136 609.773 688.582C607.115 690.13 604.52 691.813 601.762 693.16C595.501 696.217 592.465 701.593 591.081 708.008C588.217 721.276 598.726 733.979 612.308 733.863C613.058 733.857 613.807 733.728 614.555 733.645C615.222 733.571 615.744 733.836 615.917 734.459C616.081 735.047 615.672 735.462 615.147 735.658C613.413 736.308 611.691 737.006 609.921 737.542C575.17 748.08 537.517 727.975 526.952 693.25C524.979 686.76 524.155 680.097 524 670.876Z" fill="#FA9D76"/>
</g>
<path d="M1260.83 206.55L1241.33 214.335C1240.1 214.849 1238.93 214.734 1237.83 213.99C1236.72 213.246 1236.17 212.205 1236.17 210.867V209.171C1236.17 208.554 1236.31 207.963 1236.59 207.398C1236.88 206.833 1237.27 206.37 1237.79 206.01L1260.83 189.9V176.333C1260.83 174.637 1261.44 173.186 1262.65 171.98C1263.86 170.773 1265.31 170.169 1267 170.167C1268.69 170.165 1270.15 170.769 1271.36 171.98C1272.57 173.19 1273.17 174.642 1273.17 176.333V189.9L1296.21 206.01C1296.73 206.37 1297.13 206.833 1297.41 207.398C1297.69 207.963 1297.84 208.554 1297.83 209.171V210.867C1297.83 212.203 1297.28 213.244 1296.18 213.99C1295.07 214.736 1293.9 214.851 1292.67 214.335L1273.17 206.55V217.65L1281.11 223.2C1281.52 223.508 1281.84 223.881 1282.07 224.319C1282.3 224.757 1282.42 225.232 1282.42 225.744V227.594C1282.42 228.621 1281.99 229.457 1281.14 230.1C1280.29 230.744 1279.36 230.91 1278.33 230.6L1267 227.208L1255.67 230.6C1254.64 230.908 1253.7 230.742 1252.85 230.1C1252.01 229.459 1251.58 228.624 1251.58 227.594V225.744C1251.58 225.23 1251.7 224.755 1251.93 224.319C1252.16 223.883 1252.49 223.51 1252.89 223.2L1260.83 217.65V206.55Z" fill="#FA9D76"/>
<path d="M160 140.136C165.146 140.136 169.318 135.964 169.318 130.818C169.318 125.672 165.146 121.5 160 121.5C154.853 121.5 150.682 125.672 150.682 130.818C150.682 135.964 154.853 140.136 160 140.136Z" stroke="#73240B" stroke-linecap="round" stroke-linejoin="round"/>
<path d="M160 162.5C165.146 162.5 169.318 158.328 169.318 153.182C169.318 148.036 165.146 143.864 160 143.864C154.853 143.864 150.682 148.036 150.682 153.182C150.682 158.328 154.853 162.5 160 162.5Z" stroke="#73240B" stroke-linecap="round" stroke-linejoin="round"/>
<path d="M1050 204.136C1055.15 204.136 1059.32 199.964 1059.32 194.818C1059.32 189.672 1055.15 185.5 1050 185.5C1044.85 185.5 1040.68 189.672 1040.68 194.818C1040.68 199.964 1044.85 204.136 1050 204.136Z" stroke="#FF4C00" stroke-linecap="round" stroke-linejoin="round"/>
<path d="M1050 226.5C1055.15 226.5 1059.32 222.328 1059.32 217.182C1059.32 212.036 1055.15 207.864 1050 207.864C1044.85 207.864 1040.68 212.036 1040.68 217.182C1040.68 222.328 1044.85 226.5 1050 226.5Z" stroke="#FF4C00" stroke-linecap="round" stroke-linejoin="round"/>
<defs>
<clipPath id="clip0_50_919">
<rect width="128" height="176.5" fill="white" transform="translate(524 564)"/>
</clipPath>
</defs>
</svg>
