<svg width="256" height="256" viewBox="0 0 256 256" fill="none" xmlns="http://www.w3.org/2000/svg">
<path d="M234.29 114.85L189.29 153.68L203 211.75C203.756 214.902 203.562 218.208 202.44 221.25C201.319 224.292 199.321 226.933 196.699 228.84C194.078 230.747 190.95 231.834 187.71 231.964C184.471 232.094 181.266 231.261 178.5 229.57L128 198.49L77.4699 229.57C74.7041 231.251 71.5029 232.076 68.2693 231.941C65.0356 231.806 61.9141 230.718 59.2979 228.813C56.6816 226.907 54.6876 224.271 53.5669 221.234C52.4462 218.198 52.2489 214.898 52.9999 211.75L66.7599 153.68L21.7599 114.85C19.3128 112.735 17.5431 109.946 16.6717 106.832C15.8003 103.717 15.8658 100.414 16.86 97.3368C17.8543 94.2591 19.7332 91.5425 22.2622 89.5263C24.7911 87.5101 27.858 86.2837 31.0799 86.0001L90.0799 81.2401L112.84 26.1601C114.072 23.1583 116.169 20.5906 118.864 18.7835C121.559 16.9764 124.73 16.0115 127.975 16.0115C131.22 16.0115 134.391 16.9764 137.086 18.7835C139.781 20.5906 141.878 23.1583 143.11 26.1601L165.86 81.2401L224.86 86.0001C228.088 86.2731 231.164 87.4927 233.702 89.5061C236.24 91.5196 238.128 94.2372 239.128 97.3186C240.129 100.4 240.198 103.708 239.326 106.829C238.455 109.949 236.682 112.743 234.23 114.86L234.29 114.85Z" fill="#FF4C00"/>
</svg>
